# xmcd
#
# Track frame offsets:
#	150
#	41608
#	79565
#	124101
#	146280
#	164619
#	192699
#
# Disc length: 2966 seconds
#
# Revision: 1
# Processed by: cddbd v1.5.2PL0 Copyright (c) Steve Scherf et al.
# Submitted via: audiograbber 1.83.01
#
DISCID=5c0b9407
DTITLE=Grateful Dead - 80-12-31 Oakland Auditorium Arena, Oakland CA
DYEAR=1900
DGENRE=
TTITLE0=Space
TTITLE1=The Other One
TTITLE2=Wharf Rat
TTITLE3=Around and Around
TTITLE4=Sunshine Daydream
TTITLE5=Satisfaction
TTITLE6=Brokedown Palace
EXTD=
EXTT0=
EXTT1=
EXTT2=
EXTT3=
EXTT4=
EXTT5=
EXTT6=
PLAYORDER=
